<svg id="Calque_1" data-name="Calque 1" xmlns="http://www.w3.org/2000/svg" viewBox="0 0 141.04 57.51"><defs><style>.cls-1{fill:#0046fe;}</style></defs><title>CEGID_Logo_BleuRVB</title><path class="cls-1" d="M121.87,81.36c-4.43,0-7.65-3.53-7.65-8.4s3.22-8.28,7.65-8.28,7.65,3.49,7.65,8.28-3.29,8.4-7.65,8.4m7.59-23.14v3.11h-1.2l-.12-.13a10.29,10.29,0,0,0-8.34-3.73c-7.5,0-13.37,6.81-13.37,15.49s6,15.56,13.77,15.56c4.47,0,6.56-1.83,7.87-3.43l.12-.14h1.21v6a4.94,4.94,0,0,1-4.93,4.94h-10v7.27h11A11.54,11.54,0,0,0,137,91.63V58.22Z" transform="translate(-45.7 -45.66)"/><path class="cls-1" d="M87.73,89.09c-8.88,0-15.32-6.52-15.32-15.5S78.9,58,87.5,58s14.75,6.37,14.75,15.5v1.73h-22v.4c.06,4.06,3,6.78,7.37,6.78,3.13,0,5.6-1.29,6.77-3.55l6.75,1.54c-1.94,5.5-6.83,8.65-13.41,8.65M87.5,64.22A7,7,0,0,0,80.32,70l-.07.46H94.63L94.57,70a6.88,6.88,0,0,0-7.07-5.81" transform="translate(-45.7 -45.66)"/><path class="cls-1" d="M143.59,59.42h7.56V88.18h-7.56Zm3.92-4.82a4.47,4.47,0,1,1,4.56-4.5,4.46,4.46,0,0,1-4.56,4.5" transform="translate(-45.7 -45.66)"/><path class="cls-1" d="M169.92,89.17c-7.72,0-13.77-6.83-13.77-15.56S162,58.12,169.46,58.12a10.16,10.16,0,0,1,8.33,3.71l.12.15h1.21V46h7.62V88.42h-7.62V85.6H177.9l-.12.15c-1.72,2.27-4.36,3.42-7.86,3.42m1.61-23.84c-4.43,0-7.65,3.51-7.65,8.34S167.12,82,171.59,82s7.65-3.58,7.65-8.34-3.17-8.34-7.71-8.34" transform="translate(-45.7 -45.66)"/><path class="cls-1" d="M60.71,89c-8.7,0-15-6.41-15-15.25,0-9,6.62-15.62,15.74-15.62a18.77,18.77,0,0,1,8.73,2.06L67.71,66.3A12.49,12.49,0,0,0,62.18,65c-4.83,0-8.64,2.81-8.64,8.59s3.7,8.58,8.76,8.58a10,10,0,0,0,5.39-1.54l2.6,5.41A16.61,16.61,0,0,1,60.71,89" transform="translate(-45.7 -45.66)"/></svg>